ffmpeg started on 2025-06-07 at 17:44:12
Report written to "D:\Convert\FFMetrics\reports\psnr_report-6.txt"
Log level: 32
Command line:
ffmpeg -hide_banner -nostdin -i "G:\\\xc0\xed\xe8\xec\xe5\\\xce\xed\xe3\xee\xe8\xed\xe3\xe8\\!_36_\xce\xf1\xe5\xed\xfc_2024\\DreamCast\\\xdd\xe9, \xd2\xee\xec\xe1\xee!\\\xd2\xc2-2\\[DC] Tonbo 2 - 06_Telegram_HEVC.mkv" -i "G:\\\xc0\xed\xe8\xec\xe5\\\xce\xed\xe3\xee\xe8\xed\xe3\xe8\\!_36_\xce\xf1\xe5\xed\xfc_2024\\DreamCast\\\xdd\xe9, \xd2\xee\xec\xe1\xee!\\\xd2\xc2-2\\[DC] Tonbo 2 - 06_Telegram.mp4" -lavfi "[0:v]settb=AVTB,setpts=PTS-STARTPTS,format=pix_fmts=yuv420p10,fps=24000/1001,scale=1920:1080:flags=bicubic[main];[1:v]settb=AVTB,setpts=PTS-STARTPTS,format=pix_fmts=yuv420p,fps=24000/1001,scale=1920:1080:flags=bicubic[ref];[main][ref]psnr=eof_action=endall:stats_file='D\\:/Convert/FFMetrics/logs/psnr_logfile-6.txt'" -f null -
Input #0, matroska,webm, from 'G:\Аниме\Онгоинги\!_36_Осень_2024\DreamCast\Эй, Томбо!\ТВ-2\[DC] Tonbo 2 - 06_Telegram_HEVC.mkv':
  Metadata:
    COMPATIBLE_BRANDS: isomiso2avc1mp41
    MAJOR_BRAND     : isom
    MINOR_VERSION   : 512
    ENCODER         : Lavf61.7.100
  Duration: 00:24:20.78, start: -0.021000, bitrate: 1428 kb/s
  Stream #0:0: Video: hevc (Main 10), yuv420p10le(tv, bt709, progressive), 1920x1080 [SAR 1:1 DAR 16:9], 23.98 fps, 23.98 tbr, 1k tbn (default)
      Metadata:
        HANDLER_NAME    : VideoHandler
        VENDOR_ID       : [0][0][0][0]
        ENCODER         : Lavc61.19.100 libx265
        BPS             : 1232152
        DURATION        : 00:24:19.666708333
        NUMBER_OF_FRAMES: 34997
        NUMBER_OF_BYTES : 224816417
        _STATISTICS_WRITING_APP: mkvpropedit v66.0.0 ('Josie') 64-bit
        _STATISTICS_WRITING_DATE_UTC: 2025-06-06 07:44:14
        _STATISTICS_TAGS: BPS DURATION NUMBER_OF_FRAMES NUMBER_OF_BYTES
  Stream #0:1: Audio: aac (LC), 48000 Hz, stereo, fltp (default)
      Metadata:
        HANDLER_NAME    : SoundHandler
        VENDOR_ID       : [0][0][0][0]
        ENCODER         : Lavc61.19.100 aac
        BPS             : 192942
        DURATION        : 00:24:20.778000000
        NUMBER_OF_FRAMES: 68475
        NUMBER_OF_BYTES : 35230776
        _STATISTICS_WRITING_APP: mkvpropedit v66.0.0 ('Josie') 64-bit
        _STATISTICS_WRITING_DATE_UTC: 2025-06-06 07:44:14
        _STATISTICS_TAGS: BPS DURATION NUMBER_OF_FRAMES NUMBER_OF_BYTES
Input #1, mov,mp4,m4a,3gp,3g2,mj2, from 'G:\Аниме\Онгоинги\!_36_Осень_2024\DreamCast\Эй, Томбо!\ТВ-2\[DC] Tonbo 2 - 06_Telegram.mp4':
  Metadata:
    major_brand     : isom
    minor_version   : 512
    compatible_brands: isomiso2avc1mp41
    encoder         : Lavf61.1.100
  Duration: 00:24:20.73, start: 0.000000, bitrate: 3830 kb/s
  Stream #1:0[0x1](und): Video: h264 (High) (avc1 / 0x31637661), yuv420p(tv, bt709, progressive), 1920x1080 [SAR 1:1 DAR 16:9], 3685 kb/s, 23.98 fps, 23.98 tbr, 24k tbn (default)
      Metadata:
        handler_name    : VideoHandler
        vendor_id       : [0][0][0][0]
        encoder         : Lavc61.3.100 h264_qsv
  Stream #1:1[0x2](und): Audio: aac (HE-AACv2) (mp4a / 0x6134706D), 48000 Hz, stereo, fltp, 144 kb/s (default)
      Metadata:
        handler_name    : SoundHandler
        vendor_id       : [0][0][0][0]
Stream mapping:
  Stream #0:0 (hevc) -> settb:default
  Stream #1:0 (h264) -> settb:default
  psnr:default -> Stream #0:0 (wrapped_avframe)
  Stream #0:1 -> #0:1 (aac (native) -> pcm_s16le (native))
Output #0, null, to 'pipe:':
  Metadata:
    COMPATIBLE_BRANDS: isomiso2avc1mp41
    MAJOR_BRAND     : isom
    MINOR_VERSION   : 512
    encoder         : Lavf61.7.100
  Stream #0:0: Video: wrapped_avframe, yuv420p10le(tv, bt709, progressive), 1920x1080 [SAR 1:1 DAR 16:9], q=2-31, 200 kb/s, 23.98 fps, 23.98 tbn
      Metadata:
        encoder         : Lavc61.19.100 wrapped_avframe
  Stream #0:1: Audio: pcm_s16le, 48000 Hz, stereo, s16, 1536 kb/s (default)
      Metadata:
        HANDLER_NAME    : SoundHandler
        VENDOR_ID       : [0][0][0][0]
        _STATISTICS_TAGS: BPS DURATION NUMBER_OF_FRAMES NUMBER_OF_BYTES
        BPS             : 192942
        DURATION        : 00:24:20.778000000
        NUMBER_OF_FRAMES: 68475
        NUMBER_OF_BYTES : 35230776
        _STATISTICS_WRITING_APP: mkvpropedit v66.0.0 ('Josie') 64-bit
        _STATISTICS_WRITING_DATE_UTC: 2025-06-06 07:44:14
        encoder         : Lavc61.19.100 pcm_s16le
frame=  124 fps=0.0 q=-0.0 size=N/A time=00:00:05.17 bitrate=N/A speed=  10x    frame=  336 fps=324 q=-0.0 size=N/A time=00:00:14.01 bitrate=N/A speed=13.5x    frame=  559 fps=361 q=-0.0 size=N/A time=00:00:23.31 bitrate=N/A speed=15.1x    frame=  800 fps=387 q=-0.0 size=N/A time=00:00:33.36 bitrate=N/A speed=16.1x    frame=  979 fps=380 q=-0.0 size=N/A time=00:00:40.83 bitrate=N/A speed=15.8x    frame= 1215 fps=392 q=-0.0 size=N/A time=00:00:50.67 bitrate=N/A speed=16.3x    frame= 1411 fps=391 q=-0.0 size=N/A time=00:00:58.85 bitrate=N/A speed=16.3x    frame= 1632 fps=395 q=-0.0 size=N/A time=00:01:08.06 bitrate=N/A speed=16.5x    frame= 1854 fps=399 q=-0.0 size=N/A time=00:01:17.32 bitrate=N/A speed=16.6x    frame= 2029 fps=393 q=-0.0 size=N/A time=00:01:24.62 bitrate=N/A speed=16.4x    frame= 2227 fps=393 q=-0.0 size=N/A time=00:01:32.88 bitrate=N/A speed=16.4x    frame= 2398 fps=387 q=-0.0 size=N/A time=00:01:40.01 bitrate=N/A speed=16.1x    frame= 2606 fps=389 q=-0.0 size=N/A time=00:01:48.69 bitrate=N/A speed=16.2x    frame= 2842 fps=393 q=-0.0 size=N/A time=00:01:58.53 bitrate=N/A speed=16.4x    frame= 3058 fps=395 q=-0.0 size=N/A time=00:02:07.54 bitrate=N/A speed=16.5x    frame= 3271 fps=396 q=-0.0 size=N/A time=00:02:16.42 bitrate=N/A speed=16.5x    frame= 3424 fps=390 q=-0.0 size=N/A time=00:02:22.80 bitrate=N/A speed=16.3x    frame= 3557 fps=383 q=-0.0 size=N/A time=00:02:28.35 bitrate=N/A speed=  16x    frame= 3752 fps=383 q=-0.0 size=N/A time=00:02:36.48 bitrate=N/A speed=  16x    frame= 3937 fps=382 q=-0.0 size=N/A time=00:02:44.20 bitrate=N/A speed=15.9x    frame= 4100 fps=379 q=-0.0 size=N/A time=00:02:51.00 bitrate=N/A speed=15.8x    frame= 4340 fps=382 q=-0.0 size=N/A time=00:03:01.01 bitrate=N/A speed=15.9x    frame= 4585 fps=386 q=-0.0 size=N/A time=00:03:11.23 bitrate=N/A speed=16.1x    frame= 4826 fps=390 q=-0.0 size=N/A time=00:03:21.28 bitrate=N/A speed=16.3x    frame= 5098 fps=395 q=-0.0 size=N/A time=00:03:32.62 bitrate=N/A speed=16.5x    frame= 5351 fps=399 q=-0.0 size=N/A time=00:03:43.18 bitrate=N/A speed=16.6x    frame= 5618 fps=403 q=-0.0 size=N/A time=00:03:54.31 bitrate=N/A speed=16.8x    frame= 5863 fps=406 q=-0.0 size=N/A time=00:04:04.53 bitrate=N/A speed=16.9x    frame= 6112 fps=409 q=-0.0 size=N/A time=00:04:14.92 bitrate=N/A speed=  17x    frame= 6312 fps=408 q=-0.0 size=N/A time=00:04:23.26 bitrate=N/A speed=  17x    frame= 6557 fps=410 q=-0.0 size=N/A time=00:04:33.48 bitrate=N/A speed=17.1x    frame= 6753 fps=409 q=-0.0 size=N/A time=00:04:41.65 bitrate=N/A speed=17.1x    frame= 7000 fps=411 q=-0.0 size=N/A time=00:04:51.95 bitrate=N/A speed=17.2x    frame= 7270 fps=414 q=-0.0 size=N/A time=00:05:03.21 bitrate=N/A speed=17.3x    frame= 7531 fps=417 q=-0.0 size=N/A time=00:05:14.10 bitrate=N/A speed=17.4x    frame= 7788 fps=420 q=-0.0 size=N/A time=00:05:24.82 bitrate=N/A speed=17.5x    frame= 8069 fps=423 q=-0.0 size=N/A time=00:05:36.54 bitrate=N/A speed=17.6x    frame= 8314 fps=424 q=-0.0 size=N/A time=00:05:46.76 bitrate=N/A speed=17.7x    frame= 8551 fps=425 q=-0.0 size=N/A time=00:05:56.64 bitrate=N/A speed=17.7x    frame= 8817 fps=427 q=-0.0 size=N/A time=00:06:07.74 bitrate=N/A speed=17.8x    frame= 9034 fps=427 q=-0.0 size=N/A time=00:06:16.79 bitrate=N/A speed=17.8x    frame= 9258 fps=427 q=-0.0 size=N/A time=00:06:26.13 bitrate=N/A speed=17.8x    frame= 9473 fps=427 q=-0.0 size=N/A time=00:06:35.10 bitrate=N/A speed=17.8x    frame= 9729 fps=429 q=-0.0 size=N/A time=00:06:45.78 bitrate=N/A speed=17.9x    frame= 9984 fps=430 q=-0.0 size=N/A time=00:06:56.41 bitrate=N/A speed=17.9x    frame=10245 fps=432 q=-0.0 size=N/A time=00:07:07.30 bitrate=N/A speed=  18x    frame=10508 fps=433 q=-0.0 size=N/A time=00:07:18.27 bitrate=N/A speed=18.1x    frame=10779 fps=435 q=-0.0 size=N/A time=00:07:29.57 bitrate=N/A speed=18.2x    frame=10994 fps=435 q=-0.0 size=N/A time=00:07:38.54 bitrate=N/A speed=18.1x    frame=11197 fps=434 q=-0.0 size=N/A time=00:07:47.00 bitrate=N/A speed=18.1x    frame=11464 fps=436 q=-0.0 size=N/A time=00:07:58.14 bitrate=N/A speed=18.2x    frame=11712 fps=437 q=-0.0 size=N/A time=00:08:08.48 bitrate=N/A speed=18.2x    frame=11951 fps=437 q=-0.0 size=N/A time=00:08:18.45 bitrate=N/A speed=18.2x    frame=12180 fps=437 q=-0.0 size=N/A time=00:08:28.00 bitrate=N/A speed=18.2x    frame=12357 fps=436 q=-0.0 size=N/A time=00:08:35.38 bitrate=N/A speed=18.2x    frame=12588 fps=436 q=-0.0 size=N/A time=00:08:45.02 bitrate=N/A speed=18.2x    frame=12827 fps=436 q=-0.0 size=N/A time=00:08:54.99 bitrate=N/A speed=18.2x    frame=13051 fps=436 q=-0.0 size=N/A time=00:09:04.33 bitrate=N/A speed=18.2x    frame=13247 fps=435 q=-0.0 size=N/A time=00:09:12.51 bitrate=N/A speed=18.2x    frame=13456 fps=435 q=-0.0 size=N/A time=00:09:21.22 bitrate=N/A speed=18.1x    frame=13672 fps=435 q=-0.0 size=N/A time=00:09:30.23 bitrate=N/A speed=18.1x    frame=13845 fps=433 q=-0.0 size=N/A time=00:09:37.45 bitrate=N/A speed=18.1x    frame=14007 fps=431 q=-0.0 size=N/A time=00:09:44.20 bitrate=N/A speed=  18x    frame=14246 fps=432 q=-0.0 size=N/A time=00:09:54.17 bitrate=N/A speed=  18x    frame=14442 fps=431 q=-0.0 size=N/A time=00:10:02.35 bitrate=N/A speed=  18x    frame=14667 fps=431 q=-0.0 size=N/A time=00:10:11.73 bitrate=N/A speed=  18x    frame=14889 fps=431 q=-0.0 size=N/A time=00:10:20.99 bitrate=N/A speed=  18x    frame=15147 fps=432 q=-0.0 size=N/A time=00:10:31.75 bitrate=N/A speed=  18x    frame=15394 fps=433 q=-0.0 size=N/A time=00:10:42.05 bitrate=N/A speed=  18x    frame=15647 fps=433 q=-0.0 size=N/A time=00:10:52.61 bitrate=N/A speed=18.1x    frame=15885 fps=434 q=-0.0 size=N/A time=00:11:02.53 bitrate=N/A speed=18.1x    frame=16075 fps=433 q=-0.0 size=N/A time=00:11:10.46 bitrate=N/A speed=18.1x    frame=16340 fps=434 q=-0.0 size=N/A time=00:11:21.51 bitrate=N/A speed=18.1x    frame=16568 fps=434 q=-0.0 size=N/A time=00:11:31.02 bitrate=N/A speed=18.1x    frame=16790 fps=434 q=-0.0 size=N/A time=00:11:40.28 bitrate=N/A speed=18.1x    frame=17064 fps=435 q=-0.0 size=N/A time=00:11:51.71 bitrate=N/A speed=18.2x    frame=17298 fps=436 q=-0.0 size=N/A time=00:12:01.47 bitrate=N/A speed=18.2x    frame=17541 fps=436 q=-0.0 size=N/A time=00:12:11.60 bitrate=N/A speed=18.2x    frame=17796 fps=437 q=-0.0 size=N/A time=00:12:22.24 bitrate=N/A speed=18.2x    frame=18057 fps=438 q=-0.0 size=N/A time=00:12:33.12 bitrate=N/A speed=18.3x    frame=18305 fps=438 q=-0.0 size=N/A time=00:12:43.47 bitrate=N/A speed=18.3x    frame=18544 fps=439 q=-0.0 size=N/A time=00:12:53.43 bitrate=N/A speed=18.3x    frame=18762 fps=438 q=-0.0 size=N/A time=00:13:02.53 bitrate=N/A speed=18.3x    frame=19036 fps=439 q=-0.0 size=N/A time=00:13:13.95 bitrate=N/A speed=18.3x    frame=19261 fps=439 q=-0.0 size=N/A time=00:13:23.34 bitrate=N/A speed=18.3x    frame=19526 fps=440 q=-0.0 size=N/A time=00:13:34.39 bitrate=N/A speed=18.4x    frame=19799 fps=441 q=-0.0 size=N/A time=00:13:45.78 bitrate=N/A speed=18.4x    frame=20040 fps=442 q=-0.0 size=N/A time=00:13:55.83 bitrate=N/A speed=18.4x    frame=20271 fps=442 q=-0.0 size=N/A time=00:14:05.46 bitrate=N/A speed=18.4x    frame=20479 fps=441 q=-0.0 size=N/A time=00:14:14.14 bitrate=N/A speed=18.4x    frame=20719 fps=441 q=-0.0 size=N/A time=00:14:24.15 bitrate=N/A speed=18.4x    frame=20966 fps=442 q=-0.0 size=N/A time=00:14:34.45 bitrate=N/A speed=18.4x    frame=21201 fps=442 q=-0.0 size=N/A time=00:14:44.25 bitrate=N/A speed=18.4x    frame=21439 fps=442 q=-0.0 size=N/A time=00:14:54.18 bitrate=N/A speed=18.4x    frame=21685 fps=443 q=-0.0 size=N/A time=00:15:04.44 bitrate=N/A speed=18.5x    frame=21913 fps=443 q=-0.0 size=N/A time=00:15:13.95 bitrate=N/A speed=18.5x    frame=22165 fps=443 q=-0.0 size=N/A time=00:15:24.46 bitrate=N/A speed=18.5x    frame=22402 fps=443 q=-0.0 size=N/A time=00:15:34.35 bitrate=N/A speed=18.5x    frame=22680 fps=444 q=-0.0 size=N/A time=00:15:45.94 bitrate=N/A speed=18.5x    frame=22892 fps=444 q=-0.0 size=N/A time=00:15:54.78 bitrate=N/A speed=18.5x    frame=23076 fps=443 q=-0.0 size=N/A time=00:16:02.46 bitrate=N/A speed=18.5x    frame=23282 fps=443 q=-0.0 size=N/A time=00:16:11.05 bitrate=N/A speed=18.5x    frame=23544 fps=443 q=-0.0 size=N/A time=00:16:21.98 bitrate=N/A speed=18.5x    frame=23777 fps=443 q=-0.0 size=N/A time=00:16:31.69 bitrate=N/A speed=18.5x    frame=24025 fps=444 q=-0.0 size=N/A time=00:16:42.04 bitrate=N/A speed=18.5x    frame=24286 fps=444 q=-0.0 size=N/A time=00:16:52.92 bitrate=N/A speed=18.5x    frame=24482 fps=444 q=-0.0 size=N/A time=00:17:01.10 bitrate=N/A speed=18.5x    frame=24693 fps=443 q=-0.0 size=N/A time=00:17:09.90 bitrate=N/A speed=18.5x    frame=24906 fps=443 q=-0.0 size=N/A time=00:17:18.78 bitrate=N/A speed=18.5x    frame=25182 fps=444 q=-0.0 size=N/A time=00:17:30.29 bitrate=N/A speed=18.5x    frame=25431 fps=444 q=-0.0 size=N/A time=00:17:40.68 bitrate=N/A speed=18.5x    frame=25647 fps=444 q=-0.0 size=N/A time=00:17:49.69 bitrate=N/A speed=18.5x    frame=25906 fps=444 q=-0.0 size=N/A time=00:18:00.49 bitrate=N/A speed=18.5x    frame=26163 fps=445 q=-0.0 size=N/A time=00:18:11.21 bitrate=N/A speed=18.6x    frame=26391 fps=445 q=-0.0 size=N/A time=00:18:20.72 bitrate=N/A speed=18.6x    frame=26602 fps=445 q=-0.0 size=N/A time=00:18:29.52 bitrate=N/A speed=18.5x    frame=26773 fps=444 q=-0.0 size=N/A time=00:18:36.65 bitrate=N/A speed=18.5x    frame=26977 fps=443 q=-0.0 size=N/A time=00:18:45.16 bitrate=N/A speed=18.5x    frame=27221 fps=443 q=-0.0 size=N/A time=00:18:55.34 bitrate=N/A speed=18.5x    frame=27468 fps=444 q=-0.0 size=N/A time=00:19:05.64 bitrate=N/A speed=18.5x    frame=27713 fps=444 q=-0.0 size=N/A time=00:19:15.86 bitrate=N/A speed=18.5x    frame=27973 fps=444 q=-0.0 size=N/A time=00:19:26.70 bitrate=N/A speed=18.5x    frame=28200 fps=444 q=-0.0 size=N/A time=00:19:36.17 bitrate=N/A speed=18.5x    frame=28431 fps=444 q=-0.0 size=N/A time=00:19:45.80 bitrate=N/A speed=18.5x    frame=28687 fps=445 q=-0.0 size=N/A time=00:19:56.48 bitrate=N/A speed=18.5x    frame=28941 fps=445 q=-0.0 size=N/A time=00:20:07.08 bitrate=N/A speed=18.6x    frame=29186 fps=445 q=-0.0 size=N/A time=00:20:17.29 bitrate=N/A speed=18.6x    frame=29368 fps=444 q=-0.0 size=N/A time=00:20:24.89 bitrate=N/A speed=18.5x    frame=29592 fps=444 q=-0.0 size=N/A time=00:20:34.23 bitrate=N/A speed=18.5x    frame=29793 fps=444 q=-0.0 size=N/A time=00:20:42.61 bitrate=N/A speed=18.5x    frame=30028 fps=444 q=-0.0 size=N/A time=00:20:52.41 bitrate=N/A speed=18.5x    frame=30247 fps=444 q=-0.0 size=N/A time=00:21:01.55 bitrate=N/A speed=18.5x    frame=30481 fps=444 q=-0.0 size=N/A time=00:21:11.31 bitrate=N/A speed=18.5x    frame=30696 fps=444 q=-0.0 size=N/A time=00:21:20.27 bitrate=N/A speed=18.5x    frame=30870 fps=443 q=-0.0 size=N/A time=00:21:27.53 bitrate=N/A speed=18.5x    frame=31052 fps=442 q=-0.0 size=N/A time=00:21:35.12 bitrate=N/A speed=18.4x    frame=31291 fps=442 q=-0.0 size=N/A time=00:21:45.09 bitrate=N/A speed=18.5x    frame=31455 fps=442 q=-0.0 size=N/A time=00:21:51.93 bitrate=N/A speed=18.4x    frame=31643 fps=441 q=-0.0 size=N/A time=00:21:59.77 bitrate=N/A speed=18.4x    frame=31857 fps=441 q=-0.0 size=N/A time=00:22:08.70 bitrate=N/A speed=18.4x    frame=32075 fps=441 q=-0.0 size=N/A time=00:22:17.79 bitrate=N/A speed=18.4x    frame=32307 fps=441 q=-0.0 size=N/A time=00:22:27.47 bitrate=N/A speed=18.4x    frame=32550 fps=441 q=-0.0 size=N/A time=00:22:37.60 bitrate=N/A speed=18.4x    frame=32768 fps=441 q=-0.0 size=N/A time=00:22:46.69 bitrate=N/A speed=18.4x    frame=33017 fps=441 q=-0.0 size=N/A time=00:22:57.08 bitrate=N/A speed=18.4x    frame=33229 fps=441 q=-0.0 size=N/A time=00:23:05.92 bitrate=N/A speed=18.4x    frame=33443 fps=441 q=-0.0 size=N/A time=00:23:14.85 bitrate=N/A speed=18.4x    frame=33641 fps=440 q=-0.0 size=N/A time=00:23:23.11 bitrate=N/A speed=18.4x    frame=33863 fps=440 q=-0.0 size=N/A time=00:23:32.36 bitrate=N/A speed=18.4x    frame=34101 fps=440 q=-0.0 size=N/A time=00:23:42.29 bitrate=N/A speed=18.4x    frame=34334 fps=440 q=-0.0 size=N/A time=00:23:52.01 bitrate=N/A speed=18.4x    frame=34535 fps=440 q=-0.0 size=N/A time=00:24:00.39 bitrate=N/A speed=18.4x    frame=34753 fps=440 q=-0.0 size=N/A time=00:24:09.48 bitrate=N/A speed=18.4x    [Parsed_psnr_10 @ 0000020ce5465f40] PSNR y:47.386319 u:49.565960 v:49.972090 average:48.044083 min:38.885389 max:inf
[out#0/null @ 0000020ce3214200] video:15038KiB audio:273900KiB subtitle:0KiB other streams:0KiB global headers:0KiB muxing overhead: unknown
frame=34997 fps=440 q=-0.0 Lsize=N/A time=00:24:19.66 bitrate=N/A speed=18.4x    
